<?xml version="1.0" encoding="UTF-8" standalone="no"?>
<svg
   xmlns:dc="http://purl.org/dc/elements/1.1/"
   xmlns:cc="http://creativecommons.org/ns#"
   xmlns:rdf="http://www.w3.org/1999/02/22-rdf-syntax-ns#"
   xmlns:svg="http://www.w3.org/2000/svg"
   xmlns="http://www.w3.org/2000/svg"
   xmlns:sodipodi="http://sodipodi.sourceforge.net/DTD/sodipodi-0.dtd"
   xmlns:inkscape="http://www.inkscape.org/namespaces/inkscape"
   id="Layer_1"
   data-name="Layer 1"
   width="13.420205cm"
   height="3.1357138cm"
   viewBox="0 0 380.41458 88.886609"
   version="1.1"
   sodipodi:docname="logo.svg"
   inkscape:version="0.92.4 (5da689c313, 2019-01-14)">
  <metadata
     id="metadata41">
    <rdf:RDF>
      <cc:Work
         rdf:about="">
        <dc:format>image/svg+xml</dc:format>
        <dc:type
           rdf:resource="http://purl.org/dc/dcmitype/StillImage" />
        <dc:title></dc:title>
      </cc:Work>
    </rdf:RDF>
  </metadata>
  <sodipodi:namedview
     pagecolor="#ffffff"
     bordercolor="#666666"
     borderopacity="1"
     objecttolerance="10"
     gridtolerance="10"
     guidetolerance="10"
     inkscape:pageopacity="0"
     inkscape:pageshadow="2"
     inkscape:window-width="1920"
     inkscape:window-height="1001"
     id="namedview39"
     showgrid="false"
     fit-margin-top="0.25"
     fit-margin-left="1.3"
     fit-margin-right="1.3"
     fit-margin-bottom="0.25"
     inkscape:zoom="2.263051"
     inkscape:cx="159.36705"
     inkscape:cy="53.467256"
     inkscape:window-x="-9"
     inkscape:window-y="511"
     inkscape:window-maximized="1"
     inkscape:current-layer="Layer_1"
     inkscape:pagecheckerboard="true" />
  <defs
     id="defs4">
    <style
       id="style2">.cls-1{fill:#fff;}</style>
  </defs>
  <polygon
     class="cls-1"
     points="278.668,111.375 311.243,111.375 311.243,104.134 302.097,104.134 302.097,65.89 278.668,65.89 "
     id="polygon6"
     style="fill:#ffffff"
     transform="translate(-14.853553,-56.221988)" />
  <path
     class="cls-1"
     d="m 229.40584,41.731513 a 4.3891,4.3891 0 0 1 0.6584,2.2719 3.9656,3.9656 0 0 1 -3.95,3.9087 h -7.1878 v 7.2414 h 19.279 c 15.5,-0.0617 20.5373,-11.688 15.0325,-20.6637 l -9.1634,-11.4 a 3.9862,3.9862 0 0 1 3.2944,-6.18 h 7.2445 l -0.0733,-7.2414006 h -19.283 c -15.5,0 -20.52,11.7674006 -15.0147,20.6633006 z"
     id="path8"
     inkscape:connector-curvature="0"
     style="fill:#ffffff" />
  <path
     class="cls-1"
     d="m 309.44434,47.912113 h 8.6226 l 1.978,7.2414 h 23.52 l -9.8213,-45.4855006 h -23.27 l -9.8222,45.4855006 h 7.2445 z m 4.188,-19.4117 2.7508,12.17 h -5.4458 z"
     id="path10"
     inkscape:connector-curvature="0"
     style="fill:#ffffff" />
  <path
     class="cls-1"
     d="M 73.902851,7.0868124 A 37.3572,37.3572 0 1 0 111.56405,44.432013 37.5456,37.5456 0 0 0 73.902851,7.0868124 Z m -26.7478,59.5335006 -0.0617,-0.126 a 35.2181,35.2181 0 0 1 -8.052,-22.0623 34.71,34.71 0 0 1 34.7151,-34.5262006 l -1.0646,5.0607006 -5.3616,-1.7436 4.1929,3.7773 -4.193,3.7078 5.3616,-1.6585 1.0647,4.9985 c -1.333,0.0219 -4.2571,0.7061 -5.3192,7.1543 -0.3328,2.0527 -2.3988,16.1119 -2.3988,16.1119 l -0.6472,3.4625 a 27.5514,27.5514 0 0 1 -1.3563,5.3724 17.628,17.628 0 0 1 -0.9619,1.9679 13.9046,13.9046 0 0 1 -5.2151,5.7036 20.6933,20.6933 0 0 1 -3.61,1.6585 32.7923,32.7923 0 0 1 -7.0929,1.1412 z m 46.7971,6.0128 a 34.7718,34.7718 0 0 1 -40.2259,0 20.3774,20.3774 0 0 0 4.3188,-2.4279 23.008,23.008 0 0 0 7.22,-8.8728 c 0,-0.0632 0.0644,-0.2107 0.0644,-0.2707 a 25.8274,25.8274 0 0 0 2.0626,-7.1516 l 0.5855,-3.5883 1.2932,-9.0838 a 53.72,53.72 0 0 1 1.2945,-6.5112 c 0.6238,-2.6958 1.6668,-3.648 3.2761,-3.648 1.69,0 2.7123,0.9522 3.3565,3.648 a 62.7645,62.7645 0 0 1 1.2963,6.5112 l 1.2713,9.0838 0.5855,3.5883 a 27.3843,27.3843 0 0 0 2.0662,7.1516 c 0,0.06 0.0618,0.2075 0.0618,0.2707 a 22.6315,22.6315 0 0 0 7.2186,8.8728 20.8187,20.8187 0 0 0 4.38,2.4279 z m 6.719999,-6.1388 -0.0835,0.126 a 32.8248,32.8248 0 0 1 -7.073399,-1.1416 19.9338,19.9338 0 0 1 -3.61,-1.6585 14.5731,14.5731 0 0 1 -5.3,-5.7036 c 0,0 -0.4365,-0.8921 -0.8962,-1.9679 a 27.3012,27.3012 0 0 1 -1.3563,-5.3724 l -0.71,-3.4625 c 0,0 -2.0007,-14.0592 -2.314,-16.1119 -1.088,-6.4482 -4.0078,-7.1324 -5.3835,-7.1543 l 1.1263,-4.9977 5.3408,1.6581 -4.1722,-3.7082 4.1722,-3.7773 -5.3409,1.744 -1.1466,-5.0607006 a 34.7005,34.7005 0 0 1 34.799499,34.5262006 34.1262,34.1262 0 0 1 -8.0519,22.0623 z"
     id="path12"
     inkscape:connector-curvature="0"
     style="fill:#ffffff" />
  <polygon
     class="cls-1"
     points="150.539,72.594 150.539,111.296 173.502,111.296 173.502,72.594 182.683,72.594 182.683,65.772 141.375,65.772 141.375,72.594 "
     id="polygon14"
     style="fill:#ffffff"
     transform="translate(-14.853553,-56.221988)" />
  <polygon
     class="cls-1"
     points="189.236,111.375 223.431,111.375 223.431,104.134 212.522,104.134 212.522,92.078 223.431,92.078 223.431,84.955 212.583,84.955 212.583,73.131 223.431,73.131 223.431,65.89 189.236,65.89 "
     id="polygon16"
     style="fill:#ffffff"
     transform="translate(-14.853553,-56.221988)" />
  <path
     class="cls-1"
     d="m 135.71195,63.882213 h 5.75689 a 5.415,5.415 0 0 1 3.4765,0.9414 3.6548,3.6548 0 0 1 1.1514,3 4.3876,4.3876 0 0 1 -0.4316,2.126 3.3294,3.3294 0 0 1 -1.3614,1.2842 3.3874,3.3874 0 0 1 2.17,3.5205 q 0,4.296396 -4.8271,4.295896 h -5.93459 z m 5.62409,2.126 h -3.1661 v 4.34 h 3.2549 a 1.9478,1.9478 0 0 0 2.17,-2.2363 q -1e-4,-2.1039 -2.2584,-2.1039 z m 0.1328,6.4219 h -3.2989 v 4.4941 h 3.3438 a 2.7921,2.7921 0 0 0 1.8262,-0.5088 2.1722,2.1722 0 0 0 0.6093,-1.749 1.9772,1.9772 0 0 0 -0.709,-1.7383 3.0056,3.0056 0 0 0 -1.7714,-0.498 z"
     id="path18"
     inkscape:connector-curvature="0"
     style="fill:#ffffff" />
  <path
     class="cls-1"
     d="M 152.25294,79.050209 V 63.373413 h 2.4135 v 15.676796 z"
     id="path20"
     inkscape:connector-curvature="0"
     style="fill:#ffffff" />
  <path
     class="cls-1"
     d="m 167.57424,67.978913 h 2.3907 v 11.071296 h -2.3907 v -0.686496 a 6.0716,6.0716 0 0 1 -2.9892,0.929996 q -2.2808,0 -3.0557,-1.228596 a 8.5926,8.5926 0 0 1 -0.7754,-4.3066 v -5.7793 h 2.4141 v 5.8018 a 7.09,7.09 0 0 0 0.332,2.6787 q 0.331,0.687 1.55,0.6865 a 5.3469,5.3469 0 0 0 2.1924,-0.4424 l 0.332,-0.1328 z"
     id="path22"
     inkscape:connector-curvature="0"
     style="fill:#ffffff" />
  <path
     class="cls-1"
     d="m 183.91514,77.057013 0.62,-0.0664 0.0449,1.793996 a 22.9935,22.9935 0 0 1 -4.4736,0.5088 4.2489,4.2489 0 0 1 -3.5313,-1.350596 6.9464,6.9464 0 0 1 -1.0742,-4.3174 q 0,-5.89 4.8057,-5.89 4.6494,0 4.6494,5.07 l -0.1553,1.7275 h -6.8643 a 3.0289,3.0289 0 0 0 0.5987,2.0146 2.8272,2.8272 0 0 0 2.1474,0.6416 q 1.572,7e-4 3.2326,-0.1321 z m -1.3282,-4.3838 a 3.7809,3.7809 0 0 0 -0.52,-2.292 2.127,2.127 0 0 0 -1.76,-0.6533 2.2055,2.2055 0 0 0 -1.8047,0.6866 3.649,3.649 0 0 0 -0.5869,2.2587 z"
     id="path24"
     inkscape:connector-curvature="0"
     style="fill:#ffffff" />
  <path
     class="cls-1"
     d="m 204.28524,74.333413 h -3.1 v 4.716796 h -2.458 V 63.882213 h 5.5576 q 5.1591,0 5.1591,5.0928 a 5.5972,5.5972 0 0 1 -1.2949,3.9863 5.0665,5.0665 0 0 1 -3.8638,1.3721 z m -3.1,-2.125 h 3.0781 q 2.6573,0 2.6572,-3.2334 a 3.3039,3.3039 0 0 0 -0.6426,-2.2578 2.5917,2.5917 0 0 0 -2.0146,-0.709 h -3.0781 z"
     id="path26"
     inkscape:connector-curvature="0"
     style="fill:#ffffff" />
  <path
     class="cls-1"
     d="M 214.80374,79.050209 V 63.373413 h 2.4127 v 15.676796 z"
     id="path28"
     inkscape:connector-curvature="0"
     style="fill:#ffffff" />
  <path
     class="cls-1"
     d="m 231.60944,71.389113 v 5.0478 a 1.048,1.048 0 0 0 0.2549,0.72 1.22,1.22 0 0 0 0.7187,0.2989 l -0.0664,1.837896 a 4.6538,4.6538 0 0 1 -2.9443,-0.819396 8.4158,8.4158 0 0 1 -3.5655,0.819396 q -3.2988,0 -3.2988,-3.519996 a 3.0126,3.0126 0 0 1 0.8965,-2.4356 4.875,4.875 0 0 1 2.7568,-0.9072 l 2.8565,-0.2442 v -0.7968 a 1.342,1.342 0 0 0 -1.5274,-1.5948 q -1.4179,0 -3.5429,0.1778 l -0.709,0.0439 -0.0889,-1.7051 a 19.2467,19.2467 0 0 1 4.44,-0.5752 4.08,4.08 0 0 1 2.9218,0.8741 3.7409,3.7409 0 0 1 0.898,2.7785 z m -4.96,2.7451 a 1.49,1.49 0 0 0 -1.5283,1.6611 q 0,1.5279 1.3506,1.5274 a 8.5476,8.5476 0 0 0 2.3476,-0.3536 l 0.3985,-0.1328 v -2.9453 z"
     id="path30"
     inkscape:connector-curvature="0"
     style="fill:#ffffff" />
  <path
     class="cls-1"
     d="m 240.19924,79.050209 h -2.414 V 67.978913 h 2.3912 v 0.6865 a 6.1586,6.1586 0 0 1 3.0556,-0.93 3.3272,3.3272 0 0 1 3.0225,1.251 7.9143,7.9143 0 0 1 0.8086,4.1289 v 5.934596 h -2.3916 v -5.867896 a 5.9918,5.9918 0 0 0 -0.3877,-2.5459 1.6072,1.6072 0 0 0 -1.583,-0.7529 5.4734,5.4734 0 0 0 -2.17,0.4434 l -0.3321,0.1328 z"
     id="path32"
     inkscape:connector-curvature="0"
     style="fill:#ffffff" />
  <path
     class="cls-1"
     d="m 260.90244,77.057013 0.62,-0.0664 0.0449,1.793996 a 22.9935,22.9935 0 0 1 -4.4736,0.5088 4.2489,4.2489 0 0 1 -3.5313,-1.350596 6.9464,6.9464 0 0 1 -1.0742,-4.3174 q 0,-5.89 4.8057,-5.89 4.6494,0 4.6494,5.07 l -0.1553,1.7275 h -6.8643 a 3.0289,3.0289 0 0 0 0.5987,2.0146 2.8272,2.8272 0 0 0 2.1474,0.6416 q 1.5719,7e-4 3.2326,-0.1321 z m -1.3282,-4.3838 a 3.7809,3.7809 0 0 0 -0.52,-2.292 2.127,2.127 0 0 0 -1.76,-0.6533 2.2055,2.2055 0 0 0 -1.8047,0.6866 3.649,3.649 0 0 0 -0.5869,2.2587 z"
     id="path34"
     inkscape:connector-curvature="0"
     style="fill:#ffffff" />
  <path
     class="cls-1"
     d="m 273.36924,70.038513 h -3.0557 v 4.8711 a 5.1827,5.1827 0 0 0 0.1992,1.7939 q 0.1992,0.4424 1.0186,0.4424 l 1.8154,-0.0664 0.11,1.926696 a 12.9135,12.9135 0 0 1 -2.2578,0.2872 3.1766,3.1766 0 0 1 -2.58,-0.863296 5.4367,5.4367 0 0 1 -0.6973,-3.2549 v -5.1367 h -1.417 v -2.06 h 1.417 v -3.2105 h 2.3916 v 3.2109 h 3.0557 z"
     id="path36"
     inkscape:connector-curvature="0"
     style="fill:#ffffff" />
</svg>
